<?xml version="1.0" standalone="no"?>
<!DOCTYPE svg PUBLIC "-//W3C//DTD SVG 20010904//EN"
 "http://www.w3.org/TR/2001/REC-SVG-20010904/DTD/svg10.dtd">
<svg version="1.0" xmlns="http://www.w3.org/2000/svg"
 width="833.000000pt" height="1023.000000pt" viewBox="0 0 833.000000 1023.000000"
 preserveAspectRatio="xMidYMid meet">
<metadata>
Created by potrace 1.16, written by Peter Selinger 2001-2019
</metadata>
<g transform="translate(0.000000,1023.000000) scale(0.100000,-0.100000)"
fill="#000000" stroke="none">
<path d="M850 10215 c-144 -29 -304 -100 -420 -185 -74 -55 -188 -171 -242
-245 -82 -114 -156 -294 -177 -436 -9 -55 -11 -1137 -9 -4279 l3 -4205 22 -77
c89 -312 281 -547 558 -684 65 -32 150 -64 209 -79 l99 -25 3263 0 c3576 0
3309 -5 3484 59 319 117 561 384 657 727 l28 99 3 3488 c2 3438 2 3489 -18
3584 -24 120 -84 248 -167 358 -75 98 -1629 1624 -1728 1696 -143 104 -285
166 -458 200 -95 18 -174 19 -2570 18 -1989 -1 -2485 -3 -2537 -14z m5095
-358 c87 -26 191 -77 260 -129 76 -57 1607 -1558 1658 -1626 60 -80 94 -159
107 -247 8 -58 10 -1026 8 -3505 -3 -3267 -4 -3428 -21 -3485 -75 -249 -260
-432 -507 -502 -62 -17 -194 -18 -3285 -18 -3039 0 -3224 1 -3285 18 -226 61
-407 225 -493 448 l-32 84 -3 4185 c-3 4703 -11 4251 76 4423 86 172 254 307
444 357 71 19 140 19 2543 17 2337 -2 2473 -3 2530 -20z"/>
<path d="M3867 8246 c-78 -21 -128 -63 -164 -136 -45 -90 -57 -179 -50 -380
11 -276 44 -448 147 -752 l71 -207 -72 -188 c-152 -402 -296 -746 -462 -1108
l-92 -200 -335 -170 c-443 -226 -604 -328 -760 -485 -125 -126 -176 -249 -146
-353 64 -219 328 -276 617 -131 221 110 486 405 791 881 70 109 138 210 150
225 18 21 67 41 240 97 257 84 414 126 712 192 l221 48 35 -30 c285 -242 503
-363 799 -441 137 -36 350 -49 465 -29 199 35 306 147 293 307 -14 180 -153
299 -417 358 -84 18 -126 21 -370 20 -250 -1 -297 -3 -514 -32 -132 -18 -243
-32 -246 -32 -10 0 -317 386 -423 533 -51 70 -124 178 -161 240 l-69 112 76
305 c80 319 99 417 117 589 27 273 -6 488 -96 619 -83 120 -234 183 -357 148z
m152 -147 c58 -41 73 -83 79 -210 6 -130 -9 -259 -53 -476 -41 -198 -115 -468
-125 -456 -13 14 -99 305 -119 403 -67 328 -65 568 4 685 53 92 135 112 214
54z m88 -1692 c83 -137 291 -415 457 -612 54 -64 97 -118 94 -120 -2 -2 -111
-27 -242 -55 -227 -48 -406 -97 -651 -174 -60 -19 -111 -34 -112 -32 -2 2 17
45 41 97 63 134 276 670 326 822 23 70 45 127 48 127 4 0 21 -24 39 -53z
m1671 -761 c117 -29 206 -92 233 -164 30 -79 -1 -180 -72 -232 -88 -63 -187
-61 -400 10 -228 76 -407 160 -574 271 l-110 73 35 7 c29 6 271 36 435 53 88
9 391 -3 453 -18z m-2669 -577 c-21 -40 -123 -194 -188 -284 -180 -251 -379
-465 -496 -533 -135 -78 -212 -88 -275 -35 -63 53 -76 123 -38 201 48 100 219
249 423 371 101 60 562 300 578 301 4 0 3 -9 -4 -21z"/>
<path d="M2490 2246 l0 -786 125 0 125 0 2 308 3 307 175 6 c186 7 250 20 323
62 230 135 276 518 91 744 -45 54 -110 93 -199 117 -59 16 -117 19 -357 23
l-288 5 0 -786z m520 573 c65 -14 102 -46 137 -117 25 -51 28 -68 28 -153 0
-82 -4 -102 -26 -145 -46 -90 -113 -117 -289 -118 l-115 -1 -3 273 -2 272 109
0 c61 0 133 -5 161 -11z"/>
<path d="M3650 2245 l0 -788 253 6 c278 7 349 17 455 67 96 45 207 161 261
271 74 155 108 336 98 524 -17 303 -142 534 -340 629 -123 60 -173 67 -464 73
l-263 5 0 -787z m543 546 c112 -44 198 -162 233 -321 24 -107 24 -331 0 -435
-25 -113 -78 -216 -138 -270 -69 -62 -139 -86 -270 -92 l-108 -6 0 578 0 577
113 -4 c85 -4 126 -10 170 -27z"/>
<path d="M4970 2245 l0 -786 128 3 127 3 3 343 2 342 245 0 245 0 0 100 0 100
-245 0 -245 0 0 235 0 235 305 0 305 0 0 105 0 105 -435 0 -435 0 0 -785z"/>
</g>
</svg>
