<?xml version="1.0" standalone="no"?>
<!DOCTYPE svg PUBLIC "-//W3C//DTD SVG 20010904//EN"
 "http://www.w3.org/TR/2001/REC-SVG-20010904/DTD/svg10.dtd">
<svg version="1.0" xmlns="http://www.w3.org/2000/svg"
 width="200.000000pt" height="200.000000pt" viewBox="0 0 200.000000 200.000000"
 preserveAspectRatio="xMidYMid meet">
<metadata>
Created by potrace 1.16, written by Peter Selinger 2001-2019
</metadata>
<g transform="translate(0.000000,200.000000) scale(0.100000,-0.100000)"
fill="#000000" stroke="none">
<path d="M380 1606 l0 -115 -37 -3 c-30 -2 -38 -7 -38 -23 0 -16 8 -21 38 -23
l37 -3 0 -270 0 -269 379 0 379 0 39 -117 c33 -97 43 -119 61 -121 17 -3 27 9
52 59 l32 62 82 -82 c45 -44 85 -81 89 -81 15 0 97 83 97 99 0 9 -34 50 -75
91 -41 41 -75 77 -75 80 0 3 25 18 56 33 45 22 55 32 52 49 -2 18 -21 28 -100
56 l-98 35 0 188 0 188 33 3 c24 2 32 8 32 23 0 15 -8 21 -32 23 l-32 3 -3
112 -3 112 -482 3 -483 2 0 -114z m910 -148 l0 -213 -108 108 c-59 59 -114
107 -122 107 -8 0 -83 -69 -167 -152 l-153 -153 -53 53 c-29 28 -59 52 -67 52
-8 0 -54 -39 -102 -87 l-88 -88 0 293 0 292 430 0 430 0 0 -212z m-113 -180
c109 -108 113 -114 113 -155 l0 -42 -101 36 c-87 31 -102 34 -115 21 -12 -12
-11 -23 10 -83 13 -39 27 -78 31 -87 7 -17 -13 -18 -339 -18 l-346 0 0 28 c0
21 21 48 95 122 l95 94 53 -52 c29 -28 59 -52 67 -52 9 0 83 68 165 150 82 83
152 150 155 150 2 0 55 -51 117 -112z m127 -260 l149 -51 -47 -24 c-28 -14
-46 -30 -46 -40 0 -10 37 -55 82 -100 71 -71 80 -84 68 -98 -11 -14 -23 -6
-101 71 -49 47 -94 84 -101 82 -7 -3 -24 -25 -38 -50 l-25 -46 -49 141 c-27
78 -51 148 -54 155 -6 18 1 17 162 -40z"/>
<path d="M607 1549 c-24 -14 -47 -62 -47 -99 0 -69 45 -110 119 -110 102 0
146 136 64 200 -28 22 -105 27 -136 9z"/>
</g>
</svg>
