<?xml version="1.0" standalone="no"?>
<!DOCTYPE svg PUBLIC "-//W3C//DTD SVG 20010904//EN"
 "http://www.w3.org/TR/2001/REC-SVG-20010904/DTD/svg10.dtd">
<svg version="1.0" xmlns="http://www.w3.org/2000/svg"
 width="200.000000pt" height="200.000000pt" viewBox="0 0 200.000000 200.000000"
 preserveAspectRatio="xMidYMid meet">
<metadata>
Created by potrace 1.16, written by Peter Selinger 2001-2019
</metadata>
<g transform="translate(0.000000,200.000000) scale(0.100000,-0.100000)"
fill="#000000" stroke="none">
<path d="M666 1700 c-15 -5 -37 -17 -48 -27 -44 -39 -48 -67 -49 -375 -1 -161
-5 -275 -8 -253 -6 39 -7 40 -51 43 -109 8 -197 -38 -226 -120 -16 -42 -18
-448 -4 -500 14 -48 55 -97 97 -114 19 -8 68 -14 117 -14 l85 0 4 53 c2 40 4
33 5 -28 1 -54 7 -88 18 -103 l15 -22 384 0 c335 0 386 2 399 16 12 11 16 38
18 102 1 73 2 79 7 37 l6 -50 80 -3 c68 -2 86 1 120 21 22 12 50 40 62 62 23
39 23 45 21 296 l-3 256 -28 36 c-38 51 -80 69 -162 75 -78 5 -90 -2 -98 -53
-2 -16 -5 69 -6 190 l-1 221 -133 132 -134 132 -229 -1 c-126 0 -242 -5 -258
-9z m444 -115 c0 -86 16 -132 55 -163 24 -19 41 -22 116 -22 l89 0 0 -195 0
-195 -375 0 -375 0 0 285 c0 190 4 292 11 309 23 49 56 56 277 56 l202 0 0
-75z m173 -153 c-39 -2 -77 2 -90 9 -34 18 -53 69 -53 140 l0 64 105 -105 105
-105 -67 -3z m-771 -429 l3 -38 483 -3 482 -2 0 40 c0 39 1 40 37 40 49 0 115
-33 136 -69 15 -25 17 -59 17 -259 0 -222 -1 -230 -23 -263 -29 -43 -60 -59
-119 -59 l-48 0 0 40 c0 29 -5 42 -19 50 -13 6 -175 10 -460 10 -488 0 -471 2
-471 -66 l0 -34 -55 0 c-65 0 -104 17 -131 57 -17 25 -19 52 -22 237 -2 116
-1 225 3 243 12 66 71 110 152 112 30 1 32 -1 35 -36z m876 -645 l-3 -83 -369
-3 c-264 -2 -373 1 -382 9 -10 8 -14 35 -14 85 l0 74 385 0 386 0 -3 -82z"/>
<path d="M1037 1363 c-4 -3 -7 -51 -7 -105 0 -80 3 -98 15 -98 12 0 15 17 15
90 l0 90 85 0 85 0 0 -85 0 -84 -67 -3 c-42 -2 -68 -8 -71 -15 -3 -10 18 -13
82 -13 l86 0 0 115 0 115 -108 0 c-60 0 -112 -3 -115 -7z"/>
</g>
</svg>
